<?xml version="1.0" standalone="no"?>
<!DOCTYPE svg PUBLIC "-//W3C//DTD SVG 20010904//EN"
 "http://www.w3.org/TR/2001/REC-SVG-20010904/DTD/svg10.dtd">
<svg version="1.0" xmlns="http://www.w3.org/2000/svg"
 width="225.000000pt" height="225.000000pt" viewBox="0 0 225.000000 225.000000"
 preserveAspectRatio="xMidYMid meet">

<g transform="translate(0.000000,225.000000) scale(0.100000,-0.100000)"
fill="#000000" stroke="none">
<path d="M1030 2030 c-143 -15 -301 -72 -417 -151 -70 -47 -178 -154 -229
-226 -189 -263 -221 -617 -84 -910 53 -113 112 -194 208 -284 173 -162 377
-242 617 -242 176 0 329 43 482 135 74 44 203 166 259 244 189 264 221 618 84
911 -88 188 -235 341 -415 430 -156 78 -335 111 -505 93z m252 -74 c343 -67
601 -324 672 -668 96 -464 -229 -925 -704 -999 -382 -59 -772 166 -911 525
-146 377 -15 790 320 1014 183 122 411 169 623 128z"/>
</g>
</svg>
