<?xml version="1.0" standalone="no"?>
<!DOCTYPE svg PUBLIC "-//W3C//DTD SVG 20010904//EN"
 "http://www.w3.org/TR/2001/REC-SVG-20010904/DTD/svg10.dtd">
<svg version="1.0" xmlns="http://www.w3.org/2000/svg"
 width="225.000000pt" height="225.000000pt" viewBox="0 0 225.000000 225.000000"
 preserveAspectRatio="xMidYMid meet">

<g transform="translate(0.000000,225.000000) scale(0.100000,-0.100000)"
fill="#000000" stroke="none">
<path d="M943 2145 c-689 -125 -1058 -881 -734 -1502 248 -473 820 -679 1315
-473 386 161 636 536 636 956 0 444 -289 844 -710 983 -151 49 -354 64 -507
36z m-107 -503 c96 -77 14 -219 -106 -183 -47 14 -73 51 -73 105 0 57 45 96
111 96 29 0 55 -7 68 -18z m672 -281 c49 -25 76 -56 104 -116 22 -47 23 -64
26 -302 l4 -253 -106 0 -106 0 0 198 c-1 218 -7 264 -43 300 -37 37 -100 33
-141 -8 l-31 -30 -5 -228 -5 -227 -102 -3 -103 -3 0 213 c0 117 -3 270 -7 341
l-6 127 96 0 97 0 0 -47 0 -47 39 38 c75 74 198 93 289 47z m-638 -331 l0
-340 -105 0 -105 0 0 340 0 340 105 0 105 0 0 -340z"/>
</g>
</svg>
